<?xml version="1.0" encoding="UTF-8" standalone="no"?>
<svg xmlns:dc="http://purl.org/dc/elements/1.1/" xmlns:cc="http://creativecommons.org/ns#" xmlns:rdf="http://www.w3.org/1999/02/22-rdf-syntax-ns#" xmlns:svg="http://www.w3.org/2000/svg" xmlns="http://www.w3.org/2000/svg" xmlns:sodipodi="http://sodipodi.sourceforge.net/DTD/sodipodi-0.dtd" xmlns:inkscape="http://www.inkscape.org/namespaces/inkscape" width="180" height="180" viewBox="0 0 180 170" id="svg2" sodipodi:version="0.32" inkscape:version="0.46" sodipodi:docname="Sinusspannung.svg" inkscape:output_extension="org.inkscape.output.svg.inkscape" version="1.0">
  <metadata id="metadata131">
    <rdf:RDF>
      <cc:Work rdf:about="">
        <dc:format>image/svg+xml</dc:format>
        <dc:type rdf:resource="http://purl.org/dc/dcmitype/StillImage"/>
      </cc:Work>
    </rdf:RDF>
  </metadata>
  <defs id="defs129">
    <inkscape:perspective sodipodi:type="inkscape:persp3d" inkscape:vp_x="0 : 85 : 1" inkscape:vp_y="0 : 1000 : 0" inkscape:vp_z="180 : 85 : 1" inkscape:persp3d-origin="90 : 56.666667 : 1" id="perspective133"/>
  </defs>
  <sodipodi:namedview inkscape:window-height="721" inkscape:window-width="1024" inkscape:pageshadow="2" inkscape:pageopacity="0.0" guidetolerance="10.0" gridtolerance="10.0" objecttolerance="10.0" borderopacity="1.0" bordercolor="#666666" pagecolor="#ffffff" id="base" showgrid="false" inkscape:zoom="2.7176471" inkscape:cx="91.786919" inkscape:cy="93.741625" inkscape:window-x="0" inkscape:window-y="20" inkscape:current-layer="svg2"/>
  <title id="title4">Produce by DWG to SVG Converter MX</title>
  <desc id="desc6">Produce by DWG to SVG Converter MX</desc>
  <path d="M 27.39,8.88 L 27.39,169.69" id="path32" style="fill:none;stroke:#000000;stroke-width:1;stroke-miterlimit:4;stroke-dasharray:none"/>
  <path d="M 167.92,103.28 L 167.3,105.34 L 168.35,105.34 L 168.22,105.82 L 167.16,105.82 L 165.78,110.27 L 165.65,110.65 L 165.53,111.15 L 165.53,111.26 L 165.53,111.32 L 165.55,111.41 L 165.58,111.45 L 165.61,111.48 L 165.67,111.51 L 165.71,111.51 L 165.79,111.51 L 166.02,111.39 L 166.15,111.26 L 166.24,111.18 L 166.6,110.72 L 166.88,110.33 L 167.13,110.52 L 166.8,111.02 L 166.18,111.72 L 165.88,111.91 L 165.68,112.05 L 165.28,112.19 L 165.07,112.19 L 164.92,112.19 L 164.66,112.08 L 164.56,111.98 L 164.46,111.87 L 164.36,111.61 L 164.36,111.45 L 164.36,111.24 L 164.49,110.62 L 164.61,110.2 L 165.94,105.82 L 164.79,105.82 L 164.86,105.52 L 165.28,105.41 L 165.98,105.07 L 166.27,104.85 L 166.56,104.62 L 167.22,103.84 L 167.59,103.28 L 167.92,103.28 z" id="path34" style="fill:#000000;fill-rule:evenodd"/>
  <path d="M 23.89,12.38 L 30.89,12.38 M 30.89,12.38 L 27.39,1.89 M 27.39,1.89 L 23.89,12.38" id="path36" style="fill:none;stroke:#000000;stroke-width:0.1"/>
  <path d="M 27.39,12.38 L 27.39,1.89 L 23.89,12.38 L 27.39,12.38 z" id="path38" style="fill:#000000;fill-rule:evenodd"/>
  <path d="M 27.39,12.38 L 30.89,12.38 L 27.39,1.89 L 27.39,12.38 z" id="path40" style="fill:#000000;fill-rule:evenodd"/>
  <path d="M 163.73,92.78 L 163.73,99.77 M 163.73,99.77 L 174.22,96.28 M 174.22,96.28 L 163.73,92.78" id="path42" style="fill:none;stroke:#000000;stroke-width:0.1"/>
  <path d="M 163.73,99.77 L 174.22,96.28 L 163.73,92.78 L 163.73,99.77 z" id="path44" style="fill:#000000;fill-rule:evenodd"/>
  <path d="M 17.38,7.46 L 16,12.03 L 15.85,12.54 L 15.69,13.19 L 15.69,13.32 L 15.69,13.38 L 15.71,13.47 L 15.73,13.5 L 15.75,13.53 L 15.8,13.56 L 15.83,13.56 L 15.88,13.56 L 15.99,13.51 L 16.05,13.46 L 16.11,13.4 L 16.41,12.94 L 16.65,12.53 L 16.88,12.71 L 16.62,13.17 L 16.08,13.83 L 15.8,14.04 L 15.62,14.17 L 15.27,14.3 L 15.1,14.3 L 14.97,14.3 L 14.76,14.22 L 14.69,14.14 L 14.61,14.05 L 14.54,13.84 L 14.54,13.71 L 14.54,13.58 L 14.58,13.24 L 14.63,13.03 L 14.7,12.77 L 15.06,11.57 L 15.35,10.63 L 14.68,11.68 L 13.56,13.13 L 13.12,13.52 L 12.67,13.91 L 11.84,14.3 L 11.46,14.3 L 11.28,14.3 L 10.98,14.18 L 10.85,14.06 L 10.73,13.94 L 10.61,13.63 L 10.61,13.45 L 10.61,13.17 L 10.81,12.3 L 11,11.71 L 11.79,9.37 L 11.94,8.95 L 12.08,8.43 L 12.08,8.33 L 12.08,8.28 L 12.04,8.21 L 12,8.17 L 11.97,8.14 L 11.88,8.11 L 11.84,8.11 L 11.74,8.11 L 11.55,8.17 L 11.46,8.22 L 11.36,8.28 L 10.93,8.7 L 10.6,9.06 L 10.36,8.9 L 10.67,8.46 L 11.33,7.81 L 11.67,7.6 L 11.93,7.44 L 12.42,7.28 L 12.64,7.28 L 12.79,7.28 L 13.04,7.38 L 13.14,7.49 L 13.24,7.6 L 13.33,7.87 L 13.33,8.04 L 13.33,8.24 L 13.16,8.96 L 12.98,9.48 L 12.15,11.89 L 11.98,12.39 L 11.81,13.01 L 11.81,13.14 L 11.81,13.21 L 11.86,13.33 L 11.91,13.37 L 11.96,13.42 L 12.09,13.46 L 12.17,13.46 L 12.3,13.46 L 12.64,13.34 L 12.84,13.21 L 13.05,13.09 L 13.61,12.53 L 13.96,12.1 L 14.3,11.67 L 14.88,10.86 L 15.1,10.48 L 15.33,10.11 L 15.8,8.9 L 16.06,8.08 L 16.24,7.46 L 17.38,7.46 z" id="path46" style="fill:#000000;fill-rule:evenodd"/>
  <path d="M 12.21,96.45 L 12.21,95.57 L 12.48,94.06 L 12.74,93.43 L 13.01,92.8 L 13.71,91.85 L 14.15,91.54 L 14.49,91.3 L 15.2,91.05 L 15.56,91.05 L 16.15,91.05 L 17.21,91.65 L 17.68,92.25 L 18.26,93 L 18.85,95.02 L 18.85,96.29 L 18.85,97.18 L 18.59,98.7 L 18.34,99.32 L 18.08,99.95 L 17.42,100.85 L 17.02,101.13 L 16.62,101.42 L 15.85,101.7 L 15.48,101.7 L 14.75,101.7 L 13.53,100.83 L 13.04,99.97 L 12.63,99.24 L 12.21,97.48 L 12.21,96.45 L 12.21,96.45 z M 13.7,96.64 L 13.7,97.7 L 13.96,99.43 L 14.22,100.1 L 14.43,100.66 L 15.08,101.23 L 15.51,101.23 L 15.71,101.23 L 16.13,101.04 L 16.35,100.86 L 16.57,100.68 L 16.91,100.06 L 17.02,99.63 L 17.2,98.98 L 17.37,97.15 L 17.37,95.96 L 17.37,95.09 L 17.19,93.62 L 17.01,93.04 L 16.87,92.6 L 16.52,91.99 L 16.3,91.81 L 16.15,91.68 L 15.77,91.56 L 15.55,91.56 L 15.29,91.56 L 14.84,91.79 L 14.63,92.02 L 14.36,92.33 L 13.99,93.32 L 13.89,93.99 L 13.79,94.66 L 13.7,95.99 L 13.7,96.64 L 13.7,96.64 z" id="path48" style="fill:#000000;fill-rule:evenodd"/>
  <path d="M 23.89,96.28 L 163.73,96.28" id="path50" style="fill:none;stroke:#000000;stroke-width:1;stroke-miterlimit:4;stroke-dasharray:none"/>
  <path d="M 27.39,96.28 L 32.28,81.29 M 32.28,81.29 L 37.88,66.56 M 37.88,66.56 L 42.56,55.85 M 42.56,55.85 L 45.26,50.68 M 45.26,50.68 L 48.36,45.76 M 48.36,45.76 L 50.47,42.79 M 50.47,42.79 L 52.88,39.9 M 52.88,39.9 L 54.22,38.68 M 54.22,38.68 L 55.65,37.71 M 55.65,37.71 L 57.19,37.08 M 57.19,37.08 L 58.85,36.85 M 58.85,36.85 L 60.51,37.08 M 60.51,37.08 L 62.05,37.71 M 62.05,37.71 L 63.49,38.68 M 63.49,38.68 L 64.82,39.9 M 64.82,39.9 L 67.23,42.79 M 67.23,42.79 L 69.34,45.76 M 69.34,45.76 L 72.47,50.67 M 72.47,50.67 L 75.2,55.83 M 75.2,55.83 L 77.62,61.15 M 77.62,61.15 L 79.83,66.56 M 79.83,66.56 L 85.26,81.35 M 85.26,81.35 L 90.31,96.28 M 90.31,96.28 L 100.8,125.99 M 100.8,125.99 L 105.43,136.72 M 105.43,136.72 L 108.16,141.88 M 108.16,141.88 L 111.29,146.79 M 111.29,146.79 L 113.4,149.76 M 113.4,149.76 L 115.81,152.65 M 115.81,152.65 L 117.14,153.87 M 117.14,153.87 L 118.58,154.84 M 118.58,154.84 L 120.12,155.48 M 120.12,155.48 L 121.78,155.7 M 121.78,155.7 L 123.44,155.48 M 123.44,155.48 L 124.98,154.84 M 124.98,154.84 L 126.41,153.87 M 126.41,153.87 L 127.75,152.65 M 127.75,152.65 L 130.16,149.76 M 130.16,149.76 L 132.27,146.79 M 132.27,146.79 L 135.37,141.87 M 135.37,141.87 L 138.07,136.7 M 138.07,136.7 L 142.75,125.99 M 142.75,125.99 L 148.35,111.26 M 148.35,111.26 L 153.24,96.28" id="path52" style="fill:none;stroke:#ff0000;stroke-width:1;stroke-miterlimit:4;stroke-dasharray:none"/>
  <path d="M 27.39,155.7 L 23.89,155.7" id="path54" style="fill:none;stroke:#000000;stroke-width:0.69999999;stroke-miterlimit:4;stroke-dasharray:none"/>
  <path d="M 17.38,35.42 L 16,40 L 15.85,40.51 L 15.69,41.15 L 15.69,41.29 L 15.69,41.35 L 15.71,41.44 L 15.73,41.47 L 15.75,41.5 L 15.8,41.53 L 15.83,41.53 L 15.88,41.53 L 15.99,41.48 L 16.05,41.42 L 16.11,41.37 L 16.41,40.91 L 16.65,40.5 L 16.88,40.67 L 16.62,41.13 L 16.08,41.8 L 15.8,42 L 15.62,42.14 L 15.27,42.27 L 15.1,42.27 L 14.97,42.27 L 14.76,42.19 L 14.69,42.1 L 14.61,42.02 L 14.54,41.8 L 14.54,41.67 L 14.54,41.54 L 14.58,41.2 L 14.63,40.99 L 14.7,40.73 L 15.06,39.53 L 15.35,38.59 L 14.68,39.65 L 13.56,41.09 L 13.12,41.48 L 12.67,41.88 L 11.84,42.27 L 11.46,42.27 L 11.28,42.27 L 10.98,42.15 L 10.85,42.03 L 10.73,41.91 L 10.61,41.6 L 10.61,41.42 L 10.61,41.13 L 10.81,40.26 L 11,39.68 L 11.79,37.34 L 11.94,36.92 L 12.08,36.4 L 12.08,36.3 L 12.08,36.25 L 12.04,36.17 L 12,36.14 L 11.97,36.11 L 11.88,36.08 L 11.84,36.08 L 11.74,36.08 L 11.55,36.13 L 11.46,36.19 L 11.36,36.25 L 10.93,36.67 L 10.6,37.03 L 10.36,36.86 L 10.67,36.43 L 11.33,35.78 L 11.67,35.57 L 11.93,35.41 L 12.42,35.25 L 12.64,35.25 L 12.79,35.25 L 13.04,35.35 L 13.14,35.46 L 13.24,35.56 L 13.33,35.84 L 13.33,36 L 13.33,36.2 L 13.16,36.93 L 12.98,37.45 L 12.15,39.86 L 11.98,40.35 L 11.81,40.98 L 11.81,41.11 L 11.81,41.18 L 11.86,41.3 L 11.91,41.34 L 11.96,41.38 L 12.09,41.43 L 12.17,41.43 L 12.3,41.43 L 12.64,41.3 L 12.84,41.18 L 13.05,41.05 L 13.61,40.5 L 13.96,40.07 L 14.3,39.64 L 14.88,38.83 L 15.1,38.45 L 15.33,38.07 L 15.8,36.87 L 16.06,36.05 L 16.24,35.42 L 17.38,35.42 z" id="path56" style="fill:#000000;fill-rule:evenodd"/>
  <path d="M 16.16,31.79 L 16.72,34.19 L 16.57,34.19 L 15.29,32.65 L 12.87,34.19 L 12.67,34.19 L 15.02,31.79 L 16.16,31.79 z" id="path58" style="fill:#000000;fill-rule:evenodd"/>
  <path d="M 6.41,156.72 L 10.33,156.72 L 10.33,157.86 L 6.41,157.86 L 6.41,156.72 z" id="path60" style="fill:#000000;fill-rule:evenodd"/>
  <path d="M 18.42,154.1 L 17.04,158.68 L 16.89,159.19 L 16.73,159.83 L 16.73,159.97 L 16.73,160.03 L 16.75,160.12 L 16.77,160.15 L 16.79,160.18 L 16.84,160.21 L 16.87,160.21 L 16.92,160.21 L 17.03,160.16 L 17.09,160.1 L 17.15,160.05 L 17.45,159.59 L 17.69,159.18 L 17.92,159.35 L 17.66,159.81 L 17.12,160.48 L 16.84,160.68 L 16.66,160.82 L 16.31,160.95 L 16.14,160.95 L 16.01,160.95 L 15.8,160.87 L 15.73,160.78 L 15.65,160.7 L 15.57,160.48 L 15.57,160.35 L 15.57,160.22 L 15.62,159.88 L 15.67,159.67 L 15.74,159.41 L 16.09,158.21 L 16.39,157.27 L 15.72,158.33 L 14.6,159.77 L 14.15,160.16 L 13.71,160.56 L 12.88,160.95 L 12.5,160.95 L 12.32,160.95 L 12.02,160.83 L 11.89,160.71 L 11.77,160.59 L 11.65,160.28 L 11.65,160.1 L 11.65,159.81 L 11.85,158.94 L 12.04,158.36 L 12.83,156.02 L 12.97,155.6 L 13.12,155.08 L 13.12,154.98 L 13.12,154.93 L 13.08,154.85 L 13.04,154.82 L 13,154.79 L 12.92,154.76 L 12.88,154.76 L 12.78,154.76 L 12.59,154.81 L 12.5,154.87 L 12.4,154.93 L 11.97,155.35 L 11.64,155.71 L 11.4,155.54 L 11.71,155.11 L 12.37,154.46 L 12.71,154.25 L 12.97,154.09 L 13.46,153.93 L 13.68,153.93 L 13.83,153.93 L 14.08,154.03 L 14.18,154.14 L 14.28,154.24 L 14.37,154.52 L 14.37,154.68 L 14.37,154.88 L 14.2,155.61 L 14.02,156.13 L 13.19,158.54 L 13.02,159.03 L 12.85,159.66 L 12.85,159.79 L 12.85,159.86 L 12.9,159.98 L 12.95,160.02 L 13,160.06 L 13.13,160.11 L 13.21,160.11 L 13.34,160.11 L 13.68,159.98 L 13.88,159.86 L 14.09,159.73 L 14.65,159.18 L 14.99,158.75 L 15.34,158.32 L 15.91,157.51 L 16.14,157.13 L 16.37,156.75 L 16.84,155.55 L 17.1,154.73 L 17.27,154.1 L 18.42,154.1 z" id="path62" style="fill:#000000;fill-rule:evenodd"/>
  <path d="M 17.2,150.47 L 17.76,152.87 L 17.61,152.87 L 16.33,151.33 L 13.91,152.87 L 13.71,152.87 L 16.06,150.47 L 17.2,150.47 z" id="path64" style="fill:#000000;fill-rule:evenodd"/>
  <path d="M 23.89,36.85 L 127.02,36.85" id="path66" style="fill:none;stroke:#000000;stroke-width:0.69999999;stroke-miterlimit:4;stroke-dasharray:none"/>
  <path d="M 97.31,36.85 L 97.31,96.28" id="path68" style="fill:none;stroke:#000000;stroke-width:0.69999999;stroke-miterlimit:4;stroke-dasharray:none"/>
  <path d="M 97.31,96.28 L 99.05,89.28" id="path70" style="fill:none;stroke:#000000;stroke-width:0.69999999;stroke-miterlimit:4;stroke-dasharray:none"/>
  <path d="M 97.31,96.28 L 95.56,89.28" id="path72" style="fill:none;stroke:#000000;stroke-width:0.69999999;stroke-miterlimit:4;stroke-dasharray:none"/>
  <path d="M 97.31,36.85 L 95.56,43.84" id="path74" style="fill:none;stroke:#000000;stroke-width:0.69999999;stroke-miterlimit:4;stroke-dasharray:none"/>
  <path d="M 99.05,43.84 L 97.31,36.85" id="path76" style="fill:none;stroke:#000000;stroke-width:0.69999999;stroke-miterlimit:4;stroke-dasharray:none"/>
  <path d="M 121.78,36.85 L 121.78,155.7" id="path78" style="fill:none;stroke:#000000;stroke-width:0.69999999;stroke-miterlimit:4;stroke-dasharray:none"/>
  <path d="M 121.78,155.7 L 123.53,148.71" id="path80" style="fill:none;stroke:#000000;stroke-width:0.69999999;stroke-miterlimit:4;stroke-dasharray:none"/>
  <path d="M 120.03,148.71 L 121.78,155.7" id="path82" style="fill:none;stroke:#000000;stroke-width:0.69999999;stroke-miterlimit:4;stroke-dasharray:none"/>
  <path d="M 121.78,36.85 L 120.03,43.84" id="path84" style="fill:none;stroke:#000000;stroke-width:0.69999999;stroke-miterlimit:4;stroke-dasharray:none"/>
  <path d="M 121.78,36.85 L 123.53,43.84" id="path86" style="fill:none;stroke:#000000;stroke-width:0.69999999;stroke-miterlimit:4;stroke-dasharray:none"/>
  <path d="M 23.89,54.33 L 79.83,54.33" id="path88" style="fill:none;stroke:#000000;stroke-width:0.69999999;stroke-miterlimit:4;stroke-dasharray:none"/>
  <path d="M 51.86,54.33 L 51.86,96.28" id="path90" style="fill:none;stroke:#000000;stroke-width:0.69999999;stroke-miterlimit:4;stroke-dasharray:none"/>
  <path d="M 51.86,96.28 L 53.61,89.28" id="path92" style="fill:none;stroke:#000000;stroke-width:0.69999999;stroke-miterlimit:4;stroke-dasharray:none"/>
  <path d="M 50.11,89.28 L 51.86,96.28" id="path94" style="fill:none;stroke:#000000;stroke-width:0.69999999;stroke-miterlimit:4;stroke-dasharray:none"/>
  <path d="M 51.86,54.33 L 50.11,61.32" id="path96" style="fill:none;stroke:#000000;stroke-width:0.69999999;stroke-miterlimit:4;stroke-dasharray:none"/>
  <path d="M 53.61,61.32 L 51.86,54.33" id="path98" style="fill:none;stroke:#000000;stroke-width:0.69999999;stroke-miterlimit:4;stroke-dasharray:none"/>
  <path d="M 153.24,96.28 L 153.24,166.19" id="path100" style="fill:none;stroke:#000000;stroke-width:0.69999999;stroke-miterlimit:4;stroke-dasharray:none"/>
  <path d="M 153.24,162.7 L 27.39,162.7" id="path102" style="fill:none;stroke:#000000;stroke-width:0.69999999;stroke-miterlimit:4;stroke-dasharray:none"/>
  <path d="M 27.39,162.7 L 34.38,164.44" id="path104" style="fill:none;stroke:#000000;stroke-width:0.69999999;stroke-miterlimit:4;stroke-dasharray:none"/>
  <path d="M 34.38,160.95 L 27.39,162.7" id="path106" style="fill:none;stroke:#000000;stroke-width:0.69999999;stroke-miterlimit:4;stroke-dasharray:none"/>
  <path d="M 153.24,162.7 L 146.25,160.95" id="path108" style="fill:none;stroke:#000000;stroke-width:0.69999999;stroke-miterlimit:4;stroke-dasharray:none"/>
  <path d="M 146.25,164.44 L 153.24,162.7" id="path110" style="fill:none;stroke:#000000;stroke-width:0.69999999;stroke-miterlimit:4;stroke-dasharray:none"/>
  <path d="M 99.86,64.78 L 99.86,63.32 L 100.95486,60.83 L 102.05547,59.8 L 103.15033,58.78 L 105.8068,57.75 L 107.36264,57.75 L 108.92424,57.75 L 111.57495,58.78 L 112.67557,59.8 L 113.77043,60.83 L 114.87104,63.32 L 114.87104,64.78 L 114.87104,66.23 L 113.77043,68.72 L 112.67557,69.75 L 111.57495,70.78 L 108.92424,71.8 L 107.36264,71.8 L 105.8068,71.8 L 103.15033,70.78 L 102.05547,69.75 L 100.95486,68.72 L 99.86,66.23 L 99.86,64.78 L 99.86,64.78 z M 100.86842,64.78 L 100.86842,66.04 L 101.81922,68.19 L 102.77001,69.08 L 103.7208,69.97 L 106.01424,70.86 L 107.36264,70.86 L 108.71104,70.86 L 111.01599,69.97 L 111.9668,69.08 L 112.91759,68.19 L 113.87415,66.04 L 113.87415,64.78 L 113.87415,63.51 L 112.91759,61.36 L 111.9668,60.47 L 111.01599,59.57 L 108.71104,58.68 L 107.36264,58.68 L 106.01424,58.68 L 103.7208,59.57 L 102.77001,60.47 L 101.81922,61.36 L 100.86842,63.51 L 100.86842,64.78 L 100.86842,64.78 z" id="path112" style="fill:#000000;fill-rule:evenodd;stroke-width:0.69999999;stroke-miterlimit:4;stroke-dasharray:none"/>
  <path d="M 107.7852,60.23 L 107.7852,67.49 L 107.7852,67.86 L 107.84118,68.29 L 107.90277,68.35 L 107.96435,68.41 L 108.42343,68.49 L 108.82092,68.51 L 109.47035,68.52 L 109.47035,69.11 L 104.79,69.11 L 104.79,68.52 L 105.51781,68.51 L 105.9153,68.51 L 106.37438,68.45 L 106.43596,68.39 L 106.49194,68.33 L 106.55353,67.88 L 106.55353,67.49 L 106.55353,62.06 L 106.55353,61.69 L 106.49194,61.26 L 106.43596,61.2 L 106.37438,61.14 L 105.9153,61.06 L 105.51781,61.04 L 104.79,61.03 L 104.79,60.45 L 107.7852,60.23 z" id="path114" style="fill:#000000;fill-rule:evenodd;stroke-width:0.69999999;stroke-miterlimit:4;stroke-dasharray:none"/>
  <path d="M 125.80186,75.26 L 125.80186,73.81 L 126.89672,71.32 L 127.99733,70.29 L 129.09219,69.26 L 131.74866,68.24 L 133.30449,68.24 L 134.86035,68.24 L 137.51682,69.26 L 138.61743,70.29 L 139.71229,71.32 L 140.8129,73.81 L 140.8129,75.26 L 140.8129,76.72 L 139.71229,79.21 L 138.61743,80.24 L 137.51682,81.26 L 134.86035,82.29 L 133.30449,82.29 L 131.74866,82.29 L 129.09219,81.26 L 127.99733,80.24 L 126.89672,79.21 L 125.80186,76.72 L 125.80186,75.26 L 125.80186,75.26 z M 126.81027,75.26 L 126.81027,76.53 L 127.76108,78.68 L 128.7061,79.57 L 129.65691,80.46 L 131.9561,81.35 L 133.29874,81.35 L 134.64714,81.35 L 136.94633,80.46 L 137.89714,79.57 L 138.84793,78.68 L 139.80449,76.53 L 139.80449,75.26 L 139.80449,74 L 138.84793,71.85 L 137.89714,70.95 L 136.94633,70.06 L 134.64714,69.17 L 133.29874,69.17 L 131.9561,69.17 L 129.65691,70.06 L 128.7061,70.95 L 127.76108,71.85 L 126.81027,74 L 126.81027,75.26 L 126.81027,75.26 z" id="path116" style="fill:#000000;fill-rule:evenodd;stroke-width:0.69999999;stroke-miterlimit:4;stroke-dasharray:none"/>
  <path d="M 130.36,79.59 L 130.36,78.87 L 130.6299,78.13 L 131.41755,76.91 L 131.94632,76.44 L 132.59627,75.86 L 133.18563,75.34 L 133.95676,74.54 L 134.13302,74.26 L 134.31478,73.99 L 134.49655,73.35 L 134.49655,72.99 L 134.49655,72.53 L 134.28724,71.85 L 134.07794,71.63 L 133.86863,71.4 L 133.2352,71.17 L 132.81659,71.17 L 132.4751,71.17 L 131.8637,71.33 L 131.5938,71.49 L 131.47813,71.56 L 131.32942,72.14 L 131.30188,72.64 L 131.28536,72.9 L 130.5638,72.9 L 130.5638,71.11 L 131.22476,70.84 L 132.43103,70.58 L 132.98183,70.58 L 133.59874,70.58 L 134.60671,70.92 L 134.99778,71.25 L 135.38334,71.59 L 135.77442,72.47 L 135.77442,73.01 L 135.77442,73.73 L 134.91516,75.01 L 134.0559,75.58 L 133.32884,76.05 L 132.44755,76.63 L 131.46712,77.78 L 131.36798,78.36 L 135.73035,78.36 L 135.73035,79.59 L 130.36,79.59 z" id="path118" style="fill:#000000;fill-rule:evenodd;stroke-width:0.69999999;stroke-miterlimit:4;stroke-dasharray:none"/>
  <path d="M 55.513896,75.26 L 55.513896,73.81 L 56.587534,71.32 L 57.655551,70.29 L 58.729189,69.26 L 61.320535,68.24 L 62.838243,68.24 L 64.355952,68.24 L 66.947298,69.26 L 68.015315,70.29 L 69.088953,71.32 L 70.15697,73.81 L 70.15697,75.26 L 70.15697,76.72 L 69.088953,79.21 L 68.015315,80.24 L 66.947298,81.26 L 64.355952,82.29 L 62.838243,82.29 L 61.320535,82.29 L 58.729189,81.26 L 57.655551,80.24 L 56.587534,79.21 L 55.513896,76.72 L 55.513896,75.26 L 55.513896,75.26 z M 56.497596,75.26 L 56.497596,76.53 L 57.425084,78.68 L 58.352573,79.57 L 59.280062,80.46 L 61.517275,81.35 L 62.832623,81.35 L 64.147969,81.35 L 66.390805,80.46 L 67.318293,79.57 L 68.245782,78.68 L 69.17327,76.53 L 69.17327,75.26 L 69.17327,74 L 68.245782,71.85 L 67.318293,70.95 L 66.390805,70.06 L 64.147969,69.17 L 62.832623,69.17 L 61.517275,69.17 L 59.280062,70.06 L 58.352573,70.95 L 57.425084,71.85 L 56.497596,74 L 56.497596,75.26 L 56.497596,75.26 z" id="path120" style="fill:#000000;fill-rule:evenodd;stroke-width:0.69999999;stroke-miterlimit:4;stroke-dasharray:none"/>
  <path d="M 59.808139,79.65 L 59.808139,77.9 L 60.655912,77.9 L 60.675476,78.15 L 60.695041,78.53 L 60.838509,78.97 L 60.962414,79.03 L 61.268918,79.18 L 62.005828,79.33 L 62.429716,79.33 L 62.905773,79.33 L 63.662247,79.05 L 63.942666,78.77 L 64.223083,78.49 L 64.5035,77.75 L 64.5035,77.28 L 64.5035,76.79 L 64.151348,76.05 L 63.799196,75.81 L 63.447043,75.57 L 62.384066,75.32 L 61.67324,75.32 L 60.799382,75.32 L 60.799382,74.72 L 61.268918,74.72 L 62.018871,74.72 L 63.147063,74.5 L 63.5253,74.27 L 63.903537,74.04 L 64.275253,73.36 L 64.275253,72.91 L 64.275253,72.5 L 64.033965,71.89 L 63.799196,71.69 L 63.557906,71.49 L 62.827517,71.29 L 62.344939,71.29 L 61.849316,71.29 L 61.216747,71.38 L 61.086321,71.47 L 60.955893,71.56 L 60.792861,72.01 L 60.753732,72.37 L 60.734169,72.58 L 59.886394,72.58 L 59.886394,71.04 L 60.466794,70.87 L 61.77106,70.69 L 62.494928,70.69 L 63.297054,70.69 L 64.496979,70.95 L 64.89478,71.21 L 65.299104,71.47 L 65.696904,72.26 L 65.696904,72.78 L 65.696904,73.15 L 65.468659,73.8 L 65.240411,74.07 L 65.012165,74.34 L 64.327424,74.78 L 63.86441,74.94 L 64.405681,75.06 L 65.207805,75.47 L 65.47518,75.75 L 65.749076,76.04 L 66.016451,76.78 L 66.016451,77.24 L 66.016451,77.86 L 65.540392,78.84 L 65.057813,79.2 L 64.581757,79.56 L 63.28401,79.92 L 62.462322,79.92 L 61.686284,79.92 L 60.355931,79.78 L 59.808139,79.65 L 59.808139,79.65 z" id="path122" style="fill:#000000;fill-rule:evenodd;stroke-width:0.69999999;stroke-miterlimit:4;stroke-dasharray:none"/>
  <path d="M 79.39,152.17 L 79.39,150.71 L 80.511694,148.23 L 81.63929,147.2 L 82.760983,146.17 L 85.482565,145.14 L 87.076551,145.14 L 88.676439,145.14 L 91.392117,146.17 L 92.519714,147.2 L 93.641407,148.23 L 94.769004,150.71 L 94.769004,152.17 L 94.769004,153.63 L 93.641407,156.12 L 92.519714,157.14 L 91.392117,158.17 L 88.676439,159.2 L 87.076551,159.2 L 85.482565,159.2 L 82.760983,158.17 L 81.63929,157.14 L 80.511694,156.12 L 79.39,153.63 L 79.39,152.17 L 79.39,152.17 z M 80.41133,152.18 L 80.41133,153.44 L 81.385434,155.59 L 82.359535,156.49 L 83.333637,157.38 L 85.689193,158.27 L 87.070647,158.27 L 88.458004,158.27 L 90.813559,157.38 L 91.793566,156.49 L 92.767668,155.59 L 93.747673,153.44 L 93.747673,152.18 L 93.747673,150.91 L 92.767668,148.76 L 91.793566,147.86 L 90.813559,146.97 L 88.458004,146.08 L 87.070647,146.08 L 85.689193,146.08 L 83.333637,146.97 L 82.359535,147.86 L 81.385434,148.76 L 80.41133,150.91 L 80.41133,152.18 L 80.41133,152.18 z" id="path124" style="fill:#000000;fill-rule:evenodd;stroke-width:0.69999999;stroke-miterlimit:4;stroke-dasharray:none"/>
  <path d="M 87.582827,154.08 L 83.15,154.08 L 83.15,153.31 L 87.994908,147.55 L 88.713109,147.55 L 88.713109,152.98 L 89.99645,152.98 L 89.99645,154.08 L 88.713109,154.08 L 88.713109,154.9 L 88.713109,155.27 L 88.771977,155.7 L 88.830846,155.76 L 88.883829,155.81 L 89.37244,155.89 L 89.802183,155.92 L 89.919921,155.93 L 89.919921,156.51 L 86.217068,156.51 L 86.217068,155.93 L 86.323032,155.92 L 86.629151,155.9 L 87.000024,155.89 L 87.06478,155.89 L 87.223727,155.89 L 87.435654,155.79 L 87.48275,155.7 L 87.529844,155.6 L 87.582827,155.2 L 87.582827,154.9 L 87.582827,154.08 z M 84.162545,152.98 L 87.582827,152.98 L 87.582827,148.9 L 84.162545,152.98 z" id="path126" style="fill:#000000;fill-rule:evenodd;stroke-width:0.69999999;stroke-miterlimit:4;stroke-dasharray:none"/>
</svg>